<?xml version="1.0" encoding="utf-8"?>
<!-- Generator: Adobe Illustrator 27.5.0, SVG Export Plug-In . SVG Version: 6.00 Build 0)  -->
<svg version="1.1" xmlns="http://www.w3.org/2000/svg" xmlns:xlink="http://www.w3.org/1999/xlink" x="0px" y="0px"
	 viewBox="0 0 500 500" style="enable-background:new 0 0 500 500;" xml:space="preserve">
<g id="Background_complete">
	<g>
		<rect x="339.441" y="63.738" style="fill:#E6E6E6;" width="49.979" height="16.806"/>
		<rect x="328.182" y="80.544" style="fill:#F0F0F0;" width="49.979" height="16.806"/>
	</g>
	<g>
		<rect x="338.637" y="333.704" style="fill:#E6E6E6;" width="49.979" height="16.806"/>
		<rect x="327.378" y="350.51" style="fill:#F0F0F0;" width="49.979" height="16.806"/>
	</g>
	<g>
		<rect x="180.528" y="54.678" style="fill:#F0F0F0;" width="49.979" height="16.806"/>
	</g>
	<g>
		<rect x="416.731" y="208.134" style="fill:#F0F0F0;" width="49.979" height="16.806"/>
	</g>
	<g>
		<rect x="41.63" y="149.228" style="fill:#F0F0F0;" width="49.979" height="16.806"/>
	</g>
	<g>
		<rect x="173.849" y="352.075" style="fill:#F0F0F0;" width="49.979" height="16.806"/>
	</g>
	<g>
		<g>
			<g>
				<g>
					<g>
						<path style="fill:#E0E0E0;" d="M443.92,317.785H263.174c-3.232,0-5.862-2.63-5.862-5.862V48.649
							c0-3.232,2.63-5.862,5.862-5.862H443.92c3.232,0,5.862,2.629,5.862,5.862v263.273
							C449.783,315.155,447.153,317.785,443.92,317.785z M263.174,43.037c-3.095,0-5.612,2.518-5.612,5.612v263.273
							c0,3.095,2.518,5.612,5.612,5.612H443.92c3.095,0,5.612-2.518,5.612-5.612V48.649c0-3.094-2.518-5.612-5.612-5.612H263.174z"
							/>
					</g>
				</g>
				<g>
					<g>
						<path style="fill:#E0E0E0;" d="M235.493,317.785H54.746c-3.232,0-5.862-2.63-5.862-5.862V48.649
							c0-3.232,2.629-5.862,5.862-5.862h180.747c3.232,0,5.862,2.629,5.862,5.862v263.273
							C241.355,315.155,238.725,317.785,235.493,317.785z M54.746,43.037c-3.094,0-5.612,2.518-5.612,5.612v263.273
							c0,3.095,2.518,5.612,5.612,5.612h180.747c3.095,0,5.612-2.518,5.612-5.612V48.649c0-3.094-2.518-5.612-5.612-5.612H54.746z"
							/>
					</g>
				</g>
			</g>
			<g>
				<g>
					<rect x="0" y="378.854" style="fill:#E0E0E0;" width="500" height="0.25"/>
				</g>
			</g>
		</g>
		<rect x="51.672" y="393.119" style="fill:#E0E0E0;" width="16.06" height="0.25"/>
		<rect x="170.352" y="390.409" style="fill:#E0E0E0;" width="53.53" height="0.25"/>
		<rect x="68.732" y="402.409" style="fill:#E0E0E0;" width="36.25" height="0.25"/>
		<rect x="378.352" y="390.279" style="fill:#E0E0E0;" width="43.19" height="0.25"/>
		<rect x="430.452" y="390.279" style="fill:#E0E0E0;" width="6.33" height="0.25"/>
		<rect x="316.212" y="396.509" style="fill:#E0E0E0;" width="53.89" height="0.25"/>
	</g>
</g>
<g id="Background_simple" style="display:none;">
	<g style="display:inline;">
		<g>
			<path style="fill:#407BFF;" d="M318.041,299.074c45.161-6.355,90.408-32.014,117.832-68.454s35.272-88.204,15.068-129.091
				c-20.204-40.887-69.817-66.523-113.846-54.636c-47.465,12.815-77.992,61.668-124.844,76.57
				c-46.135,14.674-101.3-5.848-142.152,20.13c-23.515,14.954-36.717,44.6-32.1,72.081c4.617,27.481,23.568,57.525,101.707,77.69
				C139.707,293.365,219.46,312.946,318.041,299.074z"/>
		</g>
		<g style="opacity:0.9;">
			<path style="fill:#FFFFFF;" d="M318.041,299.074c45.161-6.355,90.408-32.014,117.832-68.454s35.272-88.204,15.068-129.091
				c-20.204-40.887-69.817-66.523-113.846-54.636c-47.465,12.815-77.992,61.668-124.844,76.57
				c-46.135,14.674-101.3-5.848-142.152,20.13c-23.515,14.954-36.717,44.6-32.1,72.081c4.617,27.481,23.568,57.525,101.707,77.69
				C139.707,293.365,219.46,312.946,318.041,299.074z"/>
		</g>
	</g>
</g>
<g id="Shadow">
	<g>
		<g>
			<path style="fill:#F5F5F5;" d="M458.875,448.394c0,3.387-93.517,6.132-208.875,6.132s-208.875-2.745-208.875-6.132
				c0-3.387,93.516-6.132,208.875-6.132S458.875,445.007,458.875,448.394z"/>
		</g>
	</g>
</g>
<g id="Plant">
	<g>
		<g>
			<g>
				<g>
					<path style="fill:#263238;" d="M290.195,422.059c-0.012-0.389-1.322-39.052-7.611-45.167
						c-6.117-5.946-13.137-0.221-13.432,0.025l-0.63-0.756c0.079-0.067,8.002-6.534,14.749,0.025
						c6.571,6.39,7.857,44.234,7.908,45.842L290.195,422.059z"/>
				</g>
				<g>
					<path style="fill:#263238;" d="M290.735,429.657c-0.045-0.462-4.298-46.415,12.484-65.675l0.742,0.646
						c-16.504,18.941-12.291,64.476-12.246,64.933L290.735,429.657z"/>
				</g>
				<g>
					<path style="fill:#263238;" d="M290.115,424.797l-0.982-0.065c0.034-0.521,3.284-52.242-9.025-63.564l0.666-0.725
						C293.428,372.083,290.256,422.649,290.115,424.797z"/>
				</g>
				<g>
					<path style="fill:#263238;" d="M291.717,424.768l-0.984-0.008c0.012-1.424,0.406-34.935,9.925-40.39
						c2.116-1.214,4.188-1.416,6.159-0.601c5.756,2.381,8.608,12.625,8.727,13.059l-0.95,0.26
						c-0.028-0.102-2.844-10.214-8.155-12.409c-1.674-0.691-3.454-0.509-5.292,0.545
						C292.115,390.399,291.72,424.425,291.717,424.768z"/>
				</g>
				<g>
					<path style="fill:#263238;" d="M288.01,424.792l-0.982-0.056c0.015-0.265,1.436-26.482-5.64-35.719
						c-1.714-2.238-3.575-3.305-5.542-3.167c-4.636,0.324-8.523,7.108-8.562,7.176l-0.857-0.484
						c0.169-0.298,4.185-7.312,9.349-7.674c2.31-0.164,4.464,1.032,6.393,3.551C289.467,397.946,288.073,423.701,288.01,424.792z"/>
				</g>
				<g>
					<path style="fill:#263238;" d="M289.562,428.358c-0.193-2.544-4.625-62.406,3.174-72.954l0.791,0.584
						c-7.583,10.257-3.03,71.676-2.984,72.295L289.562,428.358z"/>
				</g>
			</g>
			<g>
				<path style="fill:#407BFF;" d="M310.35,387.074c0,0-4.977,1.839-3.288,5.797c4.761,11.152,16.11,12.34,16.11,12.34
					s5.325-8.43,0.96-14.977C318.114,381.208,310.477,384.16,310.35,387.074z"/>
			</g>
			<g>
				<path style="fill:#407BFF;" d="M288.598,382.084c0,0,4.982-0.209,5.266,4.085c0.283,4.294-10.794,16.173-10.794,16.173
					s-7.905-2.858-6.207-13.573C278.561,378.055,287.36,379.443,288.598,382.084z"/>
			</g>
			<g>
				<path style="fill:#407BFF;" d="M291.013,357.06c0,0-2.092-0.257-2.88-2.14c-2.347-5.617,5.72-11.674,16.505-8.474
					c0,0,0.286,9.491-5.518,13.235C293.316,363.424,291.013,357.06,291.013,357.06z"/>
			</g>
			<g>
				<path style="fill:#407BFF;" d="M272.53,386.495c0,0,1.736-2.381-0.887-2.614c-2.624-0.233-13.98,4.856-10.994,16.505
					c0,0,14.608-4.765,15.114-9.642C276.269,385.867,272.53,386.495,272.53,386.495z"/>
			</g>
			<g>
				<path style="fill:#407BFF;" d="M303.674,361.228c0,0,0.656-2.162,3.13-3.065c2.474-0.904,11.665-0.336,11.792,11.689
					c0,0-14.139,2.35-15.889-2.231C300.957,363.041,303.674,361.228,303.674,361.228z"/>
			</g>
			<g>
				<path style="fill:#407BFF;" d="M296.042,371.221c0,0,0.95-1.648,2.767-0.766c1.817,0.882,7.172,6.393,2.065,13.045
					c0,0-9.49-5.706-8.714-9.71C292.875,370.098,296.042,371.221,296.042,371.221z"/>
			</g>
			<g>
				<path style="fill:#407BFF;" d="M272.793,374.121c0,0,1.37-1.796-0.637-2.018c-2.007-0.223-11.002,2.178-8.907,11.157
					c0,0,10.958-0.824,11.427-4.553C275.146,374.977,272.793,374.121,272.793,374.121z"/>
			</g>
			<polygon style="fill:#263238;" points="304.124,448.785 277.341,448.785 274.452,421.072 307.014,421.072 			"/>
			<rect x="269.948" y="417.275" style="fill:#263238;" width="41.569" height="7.594"/>
		</g>
		
			<path style="opacity:0.3;fill:none;stroke:#000000;stroke-width:0.5;stroke-linecap:round;stroke-linejoin:round;stroke-miterlimit:10;" d="
			M282.091,398.385c-0.821-5.84,2.135-12.342,6.507-16.301"/>
		
			<path style="opacity:0.3;fill:none;stroke:#000000;stroke-width:0.5;stroke-linecap:round;stroke-linejoin:round;stroke-miterlimit:10;" d="
			M296.042,371.55c2.265,2.251,3.841,5.186,4.466,8.318"/>
		
			<path style="opacity:0.3;fill:none;stroke:#000000;stroke-width:0.5;stroke-linecap:round;stroke-linejoin:round;stroke-miterlimit:10;" d="
			M310.35,387.074c4.519,2.006,8.771,6.253,10.936,10.698"/>
		
			<path style="opacity:0.3;fill:none;stroke:#000000;stroke-width:0.5;stroke-linecap:round;stroke-linejoin:round;stroke-miterlimit:10;" d="
			M303.674,361.228c2.34-0.671,4.454,0.046,6.729,0.914c2.275,0.868,4.255,2.489,5.554,4.549"/>
		<g>
			<path style="fill:#407BFF;" d="M283.843,363.254c0,0,3.317,0.396,3.51-1.636c0.192-2.032-10.966-9.938-20.123-3.402
				c0,0,2.819,9.067,9.525,10.718C283.461,370.586,283.843,363.254,283.843,363.254z"/>
		</g>
		
			<path style="opacity:0.3;fill:none;stroke:#000000;stroke-width:0.5;stroke-linecap:round;stroke-linejoin:round;stroke-miterlimit:10;" d="
			M283.74,363.42c-3.489-4.689-12.052-6.212-14.968-5.156"/>
		
			<path style="opacity:0.3;fill:none;stroke:#000000;stroke-width:0.5;stroke-linecap:round;stroke-linejoin:round;stroke-miterlimit:10;" d="
			M272.893,374.284c-2.847,1.058-5.887,2.883-7.467,5.477"/>
		
			<path style="opacity:0.3;fill:none;stroke:#000000;stroke-width:0.5;stroke-linecap:round;stroke-linejoin:round;stroke-miterlimit:10;" d="
			M262.21,395.964c2.225-4.268,5.966-7.725,10.396-9.609"/>
		
			<path style="opacity:0.3;fill:none;stroke:#000000;stroke-width:0.5;stroke-linecap:round;stroke-linejoin:round;stroke-miterlimit:10;" d="
			M291.453,356.834c1.776-3.792,5.187-6.784,9.179-8.05"/>
		<polygon style="opacity:0.3;" points="274.848,424.868 275.367,429.844 306.099,429.844 306.618,424.863 		"/>
	</g>
</g>
<g id="Panels">
	<g>
		<g>
			<g>
				<path style="fill:#407BFF;" d="M211.39,450.292h-66.572c-1.671,0-3.025-1.354-3.025-3.025v-41.286
					c0-1.671,1.354-3.025,3.025-3.025h66.572c1.671,0,3.025,1.354,3.025,3.025v41.286
					C214.415,448.938,213.061,450.292,211.39,450.292z"/>
				<path style="opacity:0.5;fill:#FFFFFF;" d="M211.39,450.292h-66.572c-1.671,0-3.025-1.354-3.025-3.025v-41.286
					c0-1.671,1.354-3.025,3.025-3.025h66.572c1.671,0,3.025,1.354,3.025,3.025v41.286
					C214.415,448.938,213.061,450.292,211.39,450.292z"/>
				<rect x="157.095" y="410.471" style="fill:#407BFF;" width="42.888" height="2.727"/>
				<path style="fill:#407BFF;" d="M153.531,411.834c0,1.034-0.839,1.873-1.873,1.873c-1.035,0-1.873-0.839-1.873-1.873
					c0-1.035,0.839-1.873,1.873-1.873C152.692,409.961,153.531,410.8,153.531,411.834z"/>
			</g>
			<g>
				<rect x="151.848" y="419.544" style="fill:#407BFF;" width="23.796" height="23.796"/>
				<rect x="151.848" y="419.544" style="opacity:0.4;fill:#FFFFFF;" width="23.796" height="23.796"/>
				<rect x="153.211" y="420.908" style="fill:#407BFF;" width="21.069" height="21.069"/>
				<rect x="153.211" y="420.908" style="opacity:0.7;fill:#FFFFFF;" width="21.069" height="21.069"/>
				<polygon style="fill:#407BFF;" points="153.211,441.977 160.368,432.458 165.105,435.7 170.817,429.38 174.28,432.616 
					174.28,441.977 				"/>
				<circle style="fill:#407BFF;" cx="163.745" cy="425.975" r="2.611"/>
			</g>
			<rect x="180.706" y="428.716" style="fill:#263238;" width="27.451" height="2.727"/>
			<rect x="180.706" y="436.114" style="fill:#263238;" width="11.977" height="2.727"/>
			<rect x="180.706" y="421.317" style="fill:#263238;" width="27.451" height="2.727"/>
		</g>
		<g>
			<g>
				<path style="fill:#407BFF;" d="M242.294,450.292H162.02c-1.671,0-3.025-1.354-3.025-3.025v-50.217
					c0-1.671,1.354-3.025,3.025-3.025h80.275c1.671,0,3.025,1.354,3.025,3.025v50.217
					C245.319,448.938,243.965,450.292,242.294,450.292z"/>
				<path style="opacity:0.7;fill:#FFFFFF;" d="M242.294,450.292H162.02c-1.671,0-3.025-1.354-3.025-3.025v-50.217
					c0-1.671,1.354-3.025,3.025-3.025h80.275c1.671,0,3.025,1.354,3.025,3.025v50.217
					C245.319,448.938,243.965,450.292,242.294,450.292z"/>
				<rect x="177.184" y="402.957" style="fill:#407BFF;" width="50.981" height="3.241"/>
				<circle style="fill:#407BFF;" cx="170.72" cy="404.578" r="2.227"/>
			</g>
			<g>
				<rect x="170.946" y="413.743" style="fill:#407BFF;" width="28.286" height="28.286"/>
				<rect x="170.946" y="413.743" style="opacity:0.4;fill:#FFFFFF;" width="28.286" height="28.286"/>
				<rect x="172.567" y="415.363" style="fill:#407BFF;" width="25.044" height="25.044"/>
				<rect x="172.567" y="415.363" style="opacity:0.7;fill:#FFFFFF;" width="25.044" height="25.044"/>
				<polygon style="fill:#407BFF;" points="172.567,440.408 181.075,429.093 186.706,432.947 193.496,425.434 197.611,429.281 
					197.611,440.408 				"/>
				<path style="fill:#407BFF;" d="M188.193,421.387c0,1.714-1.39,3.104-3.104,3.104c-1.714,0-3.104-1.39-3.104-3.104
					s1.39-3.104,3.104-3.104C186.803,418.283,188.193,419.673,188.193,421.387z"/>
			</g>
			<rect x="205.25" y="424.644" style="fill:#263238;" width="32.631" height="3.241"/>
			<rect x="205.25" y="433.439" style="fill:#263238;" width="14.237" height="3.241"/>
			<rect x="205.25" y="415.85" style="fill:#263238;" width="32.631" height="3.241"/>
		</g>
	</g>
</g>
<g id="Screen">
	<g>
		<g>
			<path style="fill:#407BFF;" d="M403.041,339.101h-302.57c-3.714,0-6.724-3.011-6.724-6.724V102.014
				c0-3.714,3.011-6.725,6.724-6.725h302.57c3.714,0,6.725,3.011,6.725,6.725v230.363
				C409.766,336.091,406.755,339.101,403.041,339.101z"/>
			<path style="opacity:0.6;fill:#FFFFFF;" d="M403.041,339.101h-302.57c-3.714,0-6.724-3.011-6.724-6.724V102.014
				c0-3.714,3.011-6.725,6.724-6.725h302.57c3.714,0,6.725,3.011,6.725,6.725v230.363
				C409.766,336.091,406.755,339.101,403.041,339.101z"/>
		</g>
		<g>
			<path style="fill:#FFFFFF;" d="M380.087,177.169h-64.964c-1.671,0-3.025-1.354-3.025-3.025V146.96
				c0-1.671,1.354-3.025,3.025-3.025h64.964c1.671,0,3.025,1.354,3.025,3.025v27.184
				C383.112,175.815,381.758,177.169,380.087,177.169z"/>
			<rect x="327.062" y="151.282" style="fill:#407BFF;" width="41.938" height="2.666"/>
			<rect x="319.913" y="159.707" style="fill:#263238;" width="54.312" height="2.666"/>
			<rect x="319.913" y="166.799" style="fill:#263238;" width="26.843" height="2.666"/>
			<path style="fill:#407BFF;" d="M323.577,152.615c0,1.012-0.82,1.832-1.832,1.832c-1.012,0-1.832-0.82-1.832-1.832
				c0-1.012,0.82-1.832,1.832-1.832C322.757,150.784,323.577,151.604,323.577,152.615z"/>
		</g>
		<g>
			<g>
				<path style="fill:#407BFF;" d="M409.766,109.472H93.678V99.458c0-2.684,2.175-4.859,4.859-4.859h307.349
					c2.143,0,3.88,1.737,3.88,3.88V109.472z"/>
				<path style="opacity:0.3;fill:#FFFFFF;" d="M402.227,102.035c0,1.745-1.415,3.16-3.16,3.16c-1.745,0-3.16-1.415-3.16-3.16
					c0-1.745,1.415-3.16,3.16-3.16C400.812,98.875,402.227,100.29,402.227,102.035z"/>
				<path style="opacity:0.3;fill:#FFFFFF;" d="M393.245,102.035c0,1.745-1.415,3.16-3.16,3.16c-1.745,0-3.16-1.415-3.16-3.16
					c0-1.745,1.415-3.16,3.16-3.16C391.83,98.875,393.245,100.29,393.245,102.035z"/>
				<path style="opacity:0.3;fill:#FFFFFF;" d="M384.263,102.035c0,1.745-1.415,3.16-3.16,3.16c-1.745,0-3.16-1.415-3.16-3.16
					c0-1.745,1.415-3.16,3.16-3.16C382.848,98.875,384.263,100.29,384.263,102.035z"/>
				<g>
					<path style="fill:none;stroke:#407BFF;stroke-linecap:round;stroke-linejoin:round;stroke-miterlimit:10;" d="M143.052,87.975
						c8.267,0,16.534,0,24.801,0"/>
					<path style="fill:none;stroke:#407BFF;stroke-linecap:round;stroke-linejoin:round;stroke-miterlimit:10;" d="M174.685,87.975
						c1.722,0,3.443,0,5.165,0"/>
				</g>
			</g>
		</g>
		<rect x="108.765" y="128.047" style="fill:none;stroke:#407BFF;stroke-miterlimit:10;" width="88.339" height="201.316"/>
		<rect x="205.517" y="128.047" style="fill:none;stroke:#407BFF;stroke-miterlimit:10;" width="88.339" height="201.316"/>
		<rect x="302.269" y="128.047" style="fill:none;stroke:#407BFF;stroke-miterlimit:10;" width="88.339" height="201.316"/>
		<g>
			<path style="fill:#FFFFFF;" d="M184.88,175.009h-64.963c-1.671,0-3.025-1.354-3.025-3.025V144.8c0-1.671,1.354-3.025,3.025-3.025
				h64.963c1.671,0,3.025,1.354,3.025,3.025v27.184C187.905,173.654,186.55,175.009,184.88,175.009z"/>
			<rect x="131.854" y="149.122" style="fill:#407BFF;" width="41.938" height="2.666"/>
			<rect x="124.706" y="157.547" style="fill:#263238;" width="54.312" height="2.666"/>
			<rect x="124.706" y="164.639" style="fill:#263238;" width="26.843" height="2.666"/>
			<path style="fill:#407BFF;" d="M128.369,150.455c0,1.012-0.82,1.832-1.832,1.832c-1.012,0-1.832-0.82-1.832-1.832
				c0-1.012,0.82-1.832,1.832-1.832C127.549,148.623,128.369,149.443,128.369,150.455z"/>
		</g>
		<g>
			<path style="fill:#FFFFFF;" d="M184.88,300.383h-64.963c-1.671,0-3.025-1.354-3.025-3.025v-27.184
				c0-1.671,1.354-3.025,3.025-3.025h64.963c1.671,0,3.025,1.354,3.025,3.025v27.184C187.905,299.029,186.55,300.383,184.88,300.383
				z"/>
			<rect x="131.854" y="274.496" style="fill:#407BFF;" width="41.938" height="2.666"/>
			<rect x="124.706" y="282.921" style="fill:#263238;" width="54.312" height="2.666"/>
			<rect x="124.706" y="290.013" style="fill:#263238;" width="26.843" height="2.666"/>
			<path style="fill:#407BFF;" d="M128.369,275.829c0,1.012-0.82,1.832-1.832,1.832c-1.012,0-1.832-0.82-1.832-1.832
				c0-1.012,0.82-1.832,1.832-1.832C127.549,273.998,128.369,274.818,128.369,275.829z"/>
		</g>
		<g>
			<path style="fill:#FFFFFF;" d="M282.168,246.827h-64.963c-1.671,0-3.025-1.354-3.025-3.025v-40.237
				c0-1.671,1.354-3.025,3.025-3.025h64.963c1.671,0,3.025,1.354,3.025,3.025v40.237
				C285.193,245.473,283.839,246.827,282.168,246.827z"/>
			<rect x="229.143" y="207.888" style="fill:#407BFF;" width="41.938" height="2.666"/>
			<path style="fill:#407BFF;" d="M225.657,209.221c0,1.012-0.82,1.832-1.832,1.832c-1.012,0-1.832-0.82-1.832-1.832
				c0-1.012,0.82-1.832,1.832-1.832C224.837,207.389,225.657,208.209,225.657,209.221z"/>
		</g>
		<g>
			<g>
				<path style="fill:#FFFFFF;" d="M282.168,192.441h-64.963c-1.671,0-3.025-1.354-3.025-3.025v-40.237
					c0-1.671,1.354-3.025,3.025-3.025h64.963c1.671,0,3.025,1.354,3.025,3.025v40.237
					C285.193,191.086,283.839,192.441,282.168,192.441z"/>
				<rect x="229.143" y="153.501" style="fill:#407BFF;" width="41.938" height="2.666"/>
				<path style="fill:#407BFF;" d="M225.657,154.834c0,1.012-0.82,1.832-1.832,1.832c-1.012,0-1.832-0.82-1.832-1.832
					c0-1.012,0.82-1.832,1.832-1.832C224.837,153.003,225.657,153.823,225.657,154.834z"/>
			</g>
			<g>
				<rect x="224.012" y="162.374" style="fill:#407BFF;" width="23.269" height="23.269"/>
				<rect x="224.012" y="162.374" style="opacity:0.4;fill:#FFFFFF;" width="23.269" height="23.269"/>
				<rect x="225.345" y="163.707" style="fill:#407BFF;" width="20.602" height="20.602"/>
				<rect x="225.345" y="163.707" style="opacity:0.7;fill:#FFFFFF;" width="20.602" height="20.602"/>
				<polygon style="fill:#407BFF;" points="225.345,184.309 232.344,175.001 236.976,178.172 242.561,171.992 245.947,175.156 
					245.947,184.309 				"/>
				<path style="fill:#407BFF;" d="M238.199,168.662c0,1.41-1.143,2.553-2.553,2.553s-2.553-1.143-2.553-2.553
					c0-1.41,1.143-2.553,2.553-2.553S238.199,167.252,238.199,168.662z"/>
			</g>
			<rect x="252.231" y="171.342" style="fill:#263238;" width="26.843" height="2.666"/>
			<rect x="252.231" y="178.576" style="fill:#263238;" width="11.712" height="2.666"/>
			<rect x="252.231" y="164.107" style="fill:#263238;" width="26.843" height="2.666"/>
		</g>
		<g>
			<path style="fill:#407BFF;" d="M247.28,227.791l4.538-12.466c1.69,0.615,3.238,1.568,4.549,2.8
				c1.311,1.232,2.357,2.718,3.076,4.367L247.28,227.791z"/>
			<path style="opacity:0.6;fill:#FFFFFF;" d="M247.28,227.791l4.538-12.466c1.69,0.615,3.238,1.568,4.549,2.8
				c1.311,1.232,2.357,2.718,3.076,4.367L247.28,227.791z"/>
			<path style="fill:#407BFF;" d="M247.28,227.791l3.866,12.69c-1.253,0.382-2.556,0.576-3.866,0.576
				c-7.277,0-13.266-5.988-13.266-13.266c0-7.277,5.988-13.266,13.266-13.266c1.526,0,3.041,0.263,4.478,0.779L247.28,227.791z"/>
			<path style="fill:#407BFF;" d="M247.28,227.791l12.187-5.241c0.712,1.656,1.079,3.439,1.079,5.241
				c0,5.802-3.806,10.962-9.349,12.675L247.28,227.791z"/>
			<path style="opacity:0.3;" d="M247.28,227.791l12.187-5.241c0.712,1.656,1.079,3.439,1.079,5.241
				c0,5.802-3.806,10.962-9.349,12.675L247.28,227.791z"/>
		</g>
		<rect x="314.732" y="187.86" style="fill:#407BFF;" width="18.513" height="18.513"/>
		<rect x="218.151" y="257.007" style="fill:#407BFF;" width="18.513" height="18.513"/>
		<rect x="240.564" y="257.007" style="fill:#407BFF;" width="18.513" height="18.513"/>
		<rect x="263.91" y="257.007" style="fill:#263238;" width="18.513" height="18.513"/>
		<rect x="218.256" y="280.887" style="fill:#FFFFFF;" width="18.513" height="18.513"/>
		<rect x="338.774" y="187.86" style="fill:#FFFFFF;" width="18.513" height="18.513"/>
	</g>
</g>
<g id="Clock">
	<g>
		<g>
			<g>
				<path style="fill:#407BFF;" d="M126.182,100.072c-6.438,17.962-26.218,27.304-44.18,20.866
					c-17.962-6.438-27.304-26.219-20.866-44.18c6.438-17.962,26.219-27.304,44.181-20.866
					C123.278,62.329,132.62,82.109,126.182,100.072z"/>
				<path style="opacity:0.3;" d="M126.182,100.072c-6.438,17.962-26.218,27.304-44.18,20.866
					c-17.962-6.438-27.304-26.219-20.866-44.18c6.438-17.962,26.219-27.304,44.181-20.866
					C123.278,62.329,132.62,82.109,126.182,100.072z"/>
				
					<ellipse transform="matrix(0.7071 -0.7071 0.7071 0.7071 -35.183 90.1304)" style="fill:#407BFF;" cx="91.206" cy="87.535" rx="34.549" ry="34.549"/>
				
					<ellipse transform="matrix(0.8905 -0.455 0.455 0.8905 -29.8385 51.0776)" style="fill:#FFFFFF;" cx="91.206" cy="87.535" rx="28.703" ry="28.703"/>
				<g>
					<path d="M87.807,111.887l0.935-6.751c0.134,0.019,0.267,0.036,0.401,0.051l-0.771,6.771
						C88.184,111.937,87.995,111.913,87.807,111.887z M77.345,107.843c-0.158-0.107-0.314-0.217-0.47-0.329l3.983-5.529
						c0.109,0.079,0.219,0.155,0.329,0.231L77.345,107.843z M99.511,110.679l-2.312-6.41l0.398-0.148l2.43,6.366
						C99.856,110.553,99.684,110.617,99.511,110.679z M69.494,99.083c-0.089-0.167-0.175-0.334-0.26-0.502l6.089-3.062l0.188,0.365
						L69.494,99.083z M109.307,104.172l-5.023-4.606l0.277-0.307l5.191,4.415l-0.116,0.132
						C109.559,103.896,109.433,104.034,109.307,104.172z M66.62,87.683c-0.002-0.19,0-0.379,0.002-0.569l6.814,0.109
						c-0.003,0.135-0.003,0.27-0.002,0.405L66.62,87.683z M108.399,92.041c0.033-0.124,0.064-0.249,0.094-0.374l6.632,1.57
						c-0.045,0.19-0.093,0.38-0.143,0.569L108.399,92.041z M75.414,79.376l-6.046-3.144l0.257-0.482l5.99,3.248L75.414,79.376z
						 M108.525,83.552l-0.098-0.404l6.611-1.656c0.045,0.181,0.089,0.362,0.13,0.544L108.525,83.552z M81.02,72.967l-3.909-5.582
						c0.15-0.105,0.302-0.209,0.454-0.311l3.808,5.65L81.02,72.967z M104.695,75.963c-0.086-0.101-0.173-0.199-0.262-0.298
						l5.058-4.567c0.13,0.143,0.257,0.288,0.381,0.434L104.695,75.963z M88.952,69.907l-0.865-6.76
						c0.194-0.025,0.387-0.047,0.581-0.067l0.672,6.782C89.209,69.875,89.08,69.89,88.952,69.907z M97.779,71.019l-0.38-0.146
						l2.374-6.388c0.177,0.066,0.354,0.134,0.529,0.204L97.779,71.019z"/>
				</g>
			</g>
			<g>
				<polyline style="fill:none;stroke:#000000;stroke-linecap:round;stroke-linejoin:round;stroke-miterlimit:10;" points="
					80.021,81.137 91.361,88.701 96.563,74.139 				"/>
				<path d="M93.392,88.3c-0.309,1.143-1.485,1.819-2.628,1.51c-1.143-0.309-1.819-1.485-1.51-2.628
					c0.309-1.143,1.485-1.819,2.628-1.51C93.024,85.981,93.701,87.157,93.392,88.3z"/>
			</g>
		</g>
		<path style="opacity:0.3;" d="M65.871,79.384C71.22,64.461,87.653,56.7,102.576,62.049c3.667,1.314,6.895,3.304,9.608,5.769
			c-3.03-3.27-6.854-5.894-11.341-7.502c-14.923-5.349-31.356,2.412-36.705,17.335c-4.034,11.256-0.604,23.365,7.726,30.935
			C64.817,100.98,62.131,89.82,65.871,79.384z"/>
	</g>
</g>
<g id="Speech_Bubble">
	<g>
		<g>
			<g>
				<path style="fill:#407BFF;" d="M438.665,129.794h-23.381c-5.996,0-10.857,4.86-10.857,10.856v13.102
					c0,5.996,4.861,10.856,10.856,10.856h5.318l0.85,6.054l6.453-6.054h10.761c5.996,0,10.856-4.861,10.856-10.856V140.65
					C449.521,134.654,444.661,129.794,438.665,129.794z"/>
			</g>
			<g>
				<path style="fill:#FFFFFF;" d="M432.496,147.243c0,1.543,1.251,2.795,2.795,2.795c1.543,0,2.794-1.251,2.794-2.795
					c0-1.544-1.251-2.795-2.794-2.795C433.747,144.449,432.496,145.7,432.496,147.243z"/>
				<path style="fill:#FFFFFF;" d="M422.975,147.243c0,1.543,1.251,2.795,2.794,2.795c1.543,0,2.795-1.251,2.795-2.795
					c0-1.544-1.251-2.795-2.795-2.795C424.227,144.449,422.975,145.7,422.975,147.243z"/>
				<path style="fill:#FFFFFF;" d="M413.203,147.243c0,1.543,1.251,2.795,2.794,2.795s2.794-1.251,2.794-2.795
					c0-1.544-1.251-2.795-2.794-2.795S413.203,145.7,413.203,147.243z"/>
			</g>
		</g>
		<g>
			<g>
				<path style="fill:#407BFF;" d="M439.269,127.672c-4.943,0-9.887,0-14.83,0c-0.483,0-0.483,0.75,0,0.75c4.943,0,9.887,0,14.83,0
					C439.751,128.422,439.752,127.672,439.269,127.672L439.269,127.672z"/>
			</g>
		</g>
		<g>
			<g>
				<path style="fill:#407BFF;" d="M422.578,127.672c-0.414,0-0.828,0-1.242,0c-0.196,0-0.384,0.173-0.375,0.375
					c0.009,0.203,0.165,0.375,0.375,0.375c0.414,0,0.828,0,1.242,0c0.196,0,0.384-0.172,0.375-0.375
					C422.944,127.844,422.789,127.672,422.578,127.672L422.578,127.672z"/>
			</g>
		</g>
	</g>
</g>
<g id="Character_2">
	<g>
		<g id="freepik--character-2--inject-2">
			<path style="fill:#E1BFB9;" d="M426.392,269.472c0,0-0.512,8.833-4.826,24.313c-2.706,9.566-5.99,18.959-9.835,28.127
				c-2.151,5.179-4.621,10.677-7.456,16.459c-1.275,2.629-2.641,5.304-4.075,8.048c-1.65,46.851-27.944,94.476-27.944,94.476
				c-1.457,0.751-6.545-0.068-6.511-1.548c3.893-6.181,11.553-66.213,16.493-94.693c0.307-3.87,0.751-7.968,1.298-12.305
				c1.446-11.497,3.586-23.995,5.691-34.991c3.267-17.324,6.374-30.904,6.374-30.904l8.662,0.842L426.392,269.472z"/>
			<path style="fill:#E1BFB9;" d="M436.728,334.331L436.728,334.331c-0.698,5.039-1.597,10.43-2.698,16.175
				c9.391,31.337-9.926,92.496-9.926,92.496c-3.267,0.649-6.158,0.228-7.626-0.876c3.642-18.429,1.024-66.338-1.81-94.966
				c-0.25-2.595-0.569-5.452-0.911-8.503c-0.58-5.168-1.275-10.859-2.015-16.744c-1.252-9.846-2.652-20.204-3.916-29.39
				c-1.548-11.098-2.891-20.489-3.586-25.213c-0.285-2.072-0.455-3.244-0.455-3.244l27.114,2.937c0,0,6.898,7.729,7.968,31.872
				C439.221,310.733,438.505,322.6,436.728,334.331z"/>
			<path style="opacity:0.2;enable-background:new    ;" d="M436.728,334.331L436.728,334.331c-7.418,2.504-15.15,3.96-22.97,4.326
				c-0.58-5.168-1.275-10.859-2.015-16.744c-2.151,5.179-4.621,10.677-7.456,16.459c-7.234-0.657-14.275-2.697-20.739-6.01
				c1.446-11.496,3.586-23.995,5.691-34.99c2.874-1.687,5.981-2.941,9.22-3.722c3.079-0.741,6.235-1.123,9.402-1.138
				c4.613-0.021,9.218,0.402,13.75,1.263c5.886,1.102,11.642,2.811,17.176,5.099C439.168,310.731,438.478,322.598,436.728,334.331z"
				/>
			<path style="fill:#263238;" d="M424.776,451.004h-1.514l-0.421-1.867l-4.997,2.277h-12.68c0,0-2.015-2.026,4.029-3.631
				c0.294-0.084,0.58-0.194,0.854-0.33c3.21-1.514,7.797-6.613,7.797-6.613h6.955c0.21,0.326,0.4,0.664,0.569,1.013
				C426.13,443.354,427.405,446.61,424.776,451.004z"/>
			<path style="fill:#E1BFB9;" d="M425.368,441.829L425.368,441.829c-0.922-1.024-5.099,3.472-8.161,5.008
				c-2.732,1.355-5.805,1.958-7.16,0.581c3.21-1.514,8.275-8.104,8.275-8.104h5.589
				C423.911,439.314,425.038,441.169,425.368,441.829z"/>
			<path style="fill:#263238;" d="M371.972,451.004h-1.48l-0.421-1.867l-5.008,2.277H352.37c0,0-2.015-2.026,4.018-3.631
				c0.294-0.084,0.58-0.194,0.854-0.33c3.221-1.514,7.797-6.613,7.797-6.613h6.955c0.215,0.323,0.405,0.662,0.569,1.013
				C373.326,443.354,374.635,446.61,371.972,451.004z"/>
			<path style="fill:#E1BFB9;" d="M372.563,441.829L372.563,441.829c-0.911-1.024-5.088,3.472-8.15,5.008
				c-2.732,1.355-5.805,1.958-7.171,0.581c3.221-1.514,8.958-8.598,8.958-8.598l4.917,0.494
				C371.118,439.314,372.245,441.169,372.563,441.829z"/>
			<path style="fill:#263238;" d="M395.078,264.065h36.004l0.979,4.644c0,0,13.227,18.303,6.522,63.948
				c0,0-28.969,3.346-56.253-2.504c0,0,6.124-46.897,12.521-62.207L395.078,264.065z"/>
		</g>
		<path style="fill:#263238;" d="M382.008,192.94c1.068,3.434,1.714,7.028,1.918,10.682c0,0,19.608-1.9,23.572-7.072
			c3.964-5.172,1.714-29.359-9.031-28.988C387.722,167.932,376.965,178.962,382.008,192.94z"/>
		<g>
			<path style="fill:#263238;" d="M386.755,172.462c-4.275,4.136-4.815,9.059-4.135,12.429c1.435,4.456,3.608,7.399,5.648,11.613
				l7.24-28.928C392.781,168.652,391.402,168.303,386.755,172.462z"/>
			<path style="fill:#263238;" d="M401.941,167.643c9.848,1.674,14.429,6.909,15.084,13.68c0.656,6.771-6.003,15.507-7.253,16.043
				l-3.952,1.453c0,0,4.359-10.08,2.55-12.773c-1.809-2.693-3.121-2.723-3.121-2.723L401.941,167.643z"/>
			<path style="fill:#263238;" d="M392.562,169.011c4.341-3.07,9.469-1.315,12.512,0c3.428,1.978,5.846,5.328,6.645,9.205
				c0.663,3.639,1.467,8.051-0.394,10.35c-1.036,1.324-2.581,2.151-4.257,2.28l-21.025-13.331
				C387.458,174.172,389.701,171.245,392.562,169.011z"/>
			<g>
				<path style="fill:#E1BFB9;" d="M401.043,218.306c1.644,1.176,2.821,0.469,4.53-0.623c10.271-5.955,6.051-10.669,6.051-10.669
					c-2.531-2.067-3.155-4.977-3.208-9.576c-0.009-0.133-0.027-0.265-0.055-0.395c-0.116-0.594-0.412-1.137-0.849-1.556
					c-1.163-1.176-3.059-1.187-4.236-0.023c-0.001,0.001-0.002,0.002-0.003,0.003l-4.664,2.302l0,0
					c-0.001,0.07-0.002,0.14-0.004,0.219c0.431,2.442,0.845,4.324,1.1,5.817c-0.003,0.184,0.064,0.369,0.087,0.545l0,0
					c-0.003,0.184,0.046,0.377,0.078,0.553c0.254,2.063-2.653,5.689-3.931,6.657C395.176,212.203,395.47,214.348,401.043,218.306z"
					/>
				<path style="opacity:0.2;enable-background:new    ;" d="M398.618,197.699L398.618,197.699c0.011,0.076,0.009,0.152-0.004,0.228
					c0.431,2.442,0.845,4.324,1.1,5.817c0.043,0.179,0.072,0.361,0.087,0.545l0,0c0.024,0.192,0.036,0.385,0.034,0.579l0,0
					c3.554-1.698,6.502-4.444,8.447-7.869l0,0c-0.111-0.586-0.391-1.126-0.805-1.555c-1.152-1.187-3.046-1.219-4.238-0.073
					L398.618,197.699z"/>
				<path style="fill:#E1BFB9;" d="M409.051,179.755c1.344,8.449,2.098,11.983-1.067,17.28c-4.77,7.959-15.184,7.964-19.009,0.129
					c-3.382-7.065-5.049-19.663,2.18-24.969C398.385,166.89,407.699,171.298,409.051,179.755z"/>
				<path style="fill:#E1BFB9;" d="M414.09,186.284c-0.52,1.972-1.826,3.475-3.19,4.238c-2.052,1.148-4.147-2.083-3.993-4.492
					c0.139-2.168,1.945-4.068,4.205-4.216C413.338,181.67,414.685,184.03,414.09,186.284z"/>
				
					<path style="opacity:0.2;fill:none;stroke:#000000;stroke-width:0.5;stroke-linecap:round;stroke-linejoin:round;stroke-miterlimit:10;" d="
					M409.318,187.101c-0.161-0.802,0.009-1.665,0.461-2.346c0.452-0.681,1.182-1.173,1.983-1.336"/>
				<g>
					<g>
						<path style="fill:#263238;" d="M398.749,185.375c0.198,0.891-0.083,1.742-0.627,1.902c-0.544,0.159-1.144-0.433-1.342-1.324
							c-0.198-0.891,0.083-1.742,0.627-1.902C397.95,183.891,398.551,184.484,398.749,185.375z"/>
						<path style="fill:#263238;" d="M390.541,187.572c0.19,0.864-0.096,1.693-0.638,1.852c-0.542,0.159-1.135-0.412-1.325-1.276
							c-0.19-0.864,0.096-1.693,0.638-1.852C389.758,186.136,390.352,186.708,390.541,187.572z"/>
						<path style="fill:#263238;" d="M399.653,181.84c-0.103,0.04-0.219,0.039-0.321-0.015c-1.602-0.839-2.932-0.032-2.947-0.023
							c-0.197,0.12-0.446,0.058-0.554-0.147c-0.107-0.205-0.034-0.47,0.165-0.595c0.069-0.043,1.738-1.058,3.726-0.016
							c0.198,0.104,0.272,0.363,0.164,0.578C399.834,181.728,399.75,181.803,399.653,181.84z"/>
						<path style="fill:#263238;" d="M386.653,184.146c-0.091-0.005-0.178-0.049-0.24-0.13c-0.127-0.168-0.099-0.432,0.062-0.59
							c1.611-1.583,3.24-1.153,3.309-1.133c0.194,0.054,0.298,0.279,0.233,0.503c-0.065,0.224-0.275,0.361-0.469,0.308
							c-0.064-0.018-1.332-0.331-2.613,0.929C386.852,184.115,386.749,184.152,386.653,184.146z"/>
						<path style="fill:#CD877B;" d="M392.662,186.562c0,0-0.457,3.465-1.4,5.803c-0.165,0.409,0.128,0.861,0.567,0.899
							c1.129,0.1,2.238-0.568,2.238-0.568L392.662,186.562z"/>
					</g>
					<path style="fill:#263238;" d="M397.729,184.002l-2.03,0.066C395.699,184.068,397.128,185.209,397.729,184.002z"/>
					<path style="fill:#263238;" d="M389.418,186.262l-2.031,0.066C387.387,186.328,388.817,187.469,389.418,186.262z"/>
				</g>
			</g>
			<g>
				<path style="fill:#263238;" d="M395.038,194.907c0.841,0.656,2.065,2.065,2.065,2.065c0.148-0.088,0.296-0.176,0.438-0.271
					c1.973-1.243,2.478-2.472,2.439-3.457c-0.023-0.539-0.217-1.007-0.421-1.36c-0.231-0.411-0.49-0.651-0.49-0.651
					c-0.652,1.284-2.402,2.585-3.367,3.24C395.303,194.751,395.038,194.907,395.038,194.907z"/>
				<path style="fill:#FFFFFF;" d="M395.704,194.472l0.625,0.593c1.856-1.175,3.004-2.252,3.231-3.182
					c-0.231-0.411-0.49-0.651-0.49-0.651C398.419,192.516,396.668,193.817,395.704,194.472z"/>
				<path style="fill:#DE5753;" d="M397.542,196.701c1.973-1.243,2.478-2.472,2.439-3.457c-0.656,0.45-1.397,1.065-1.918,1.815
					C397.663,195.63,397.544,196.199,397.542,196.701z"/>
			</g>
			<path style="fill:#263238;" d="M406.511,182.337c0,0-5.809-4.617-6.813-9.288c0,0-17.895-0.683-13.604,13.873
				c0,0-6.056-12.16,7.614-16.816c13.671-4.655,19.913,13.169,14.709,20.726C408.38,190.771,410.112,185.237,406.511,182.337z"/>
			<path style="fill:#263238;" d="M387.653,173.109c-1.526,2.112-2.34,4.655-2.324,7.26c0.333,1.831,3.067,2.7,3.067,2.7
				l2.317-4.547l0.639,3.507c4.885-1.455,7.285-4.627,8.295-8.758l-3.684-4.457C395.964,168.814,389.046,171.374,387.653,173.109z"
				/>
		</g>
		<path style="opacity:0.2;enable-background:new    ;" d="M387.015,238.192c0,0-1.479-5.702,1.592-14.884
			c0,0-7.078,7.615-5.003,12.898c1.329,3.383,1.411,3.66,1.411,3.66L387.015,238.192z"/>
		<g>
			<path style="fill:#407BFF;" d="M430.102,249.911l2.56,19.146l-39.754-2.624c0.254,5.76,3.85-13.995,3.426-16.98
				c-1.198-3.687-7.261-9.252-8.875-13.707c-1.721-6.186,1.832-23.196,2.992-23.736c1.405-0.653,3.156-0.595,4.234-1.069
				c4.189-0.986,13.721-4.39,17.991-4.921c0.827-0.077,1.647-0.227,2.463-0.321c0,0,16.149-0.777,16.863,5.793
				C432.073,211.858,428.154,229.094,430.102,249.911z"/>
			<polygon style="opacity:0.2;enable-background:new    ;" points="431.154,245.468 422.648,224.315 425.328,243.445 
				418.113,248.697 			"/>
			<path style="opacity:0.2;enable-background:new    ;" d="M412.905,262.346c0.528-0.069,4.072-4.569,4.072-4.569h14.177
				l-0.583-4.363c0.398-0.314-16.501,0.441-16.501,0.441l-1.164,5.306V262.346z"/>
			<g>
				<path style="fill:#407BFF;" d="M425.067,207.227c0.691,0.086,3.498-1.504,8.565,5.005c5.068,6.508,12.701,37.134,11.025,40.359
					s-31.752,3.768-31.752,3.768v-7.793l16.88-3.822c0,0-9.579-23.061-8.067-29.002C423.23,209.802,425.067,207.227,425.067,207.227
					z"/>
				<path style="fill:#E1BFB9;" d="M417.475,205.563c-1.219,6.625-6.174,11.94-12.698,13.62c-2.288,0.55-4.846-0.716-6.654-2.215
					c-1.833-1.53-3.054-3.669-3.438-6.025C402.63,207.81,409.825,205.01,417.475,205.563z"/>
			</g>
			<path style="fill:#407BFF;" d="M392.124,211.823c0,0-3.179-0.355-5.981,3.15c-4.16,5.202-19.709,20.776-19.709,20.776
				l-22.4-10.577l-3.784,7.205c0,0,21.597,16.45,27.342,16.413c9.26-0.059,22.647-13.595,22.647-13.595L392.124,211.823z"/>
			<g>
				<g>
					<g>
						<path style="fill:#407BFF;" d="M409.88,270.79h-67.695c-1.67,0-3.025-1.354-3.025-3.025v-42.017
							c0-1.671,1.354-3.025,3.025-3.025h67.695c1.671,0,3.025,1.354,3.025,3.025v42.017
							C412.905,269.436,411.551,270.79,409.88,270.79z"/>
						<path style="opacity:0.9;fill:#FFFFFF;" d="M409.88,270.79h-67.695c-1.67,0-3.025-1.354-3.025-3.025v-42.017
							c0-1.671,1.354-3.025,3.025-3.025h67.695c1.671,0,3.025,1.354,3.025,3.025v42.017
							C412.905,269.436,411.551,270.79,409.88,270.79z"/>
						<rect x="354.699" y="230.353" style="fill:#407BFF;" width="43.551" height="2.769"/>
						<circle style="fill:#407BFF;" cx="349.177" cy="231.737" r="1.902"/>
					</g>
					<g>
						<rect x="349.371" y="239.567" style="fill:#407BFF;" width="24.164" height="24.164"/>
						<rect x="349.371" y="239.567" style="opacity:0.4;fill:#FFFFFF;" width="24.164" height="24.164"/>
						<rect x="350.755" y="240.951" style="fill:#407BFF;" width="21.395" height="21.395"/>
						<rect x="350.755" y="240.951" style="opacity:0.7;fill:#FFFFFF;" width="21.395" height="21.395"/>
						<polygon style="fill:#407BFF;" points="350.755,262.346 358.023,252.68 362.833,255.972 368.634,249.554 372.15,252.84 
							372.15,262.346 						"/>
						<path style="fill:#407BFF;" d="M364.104,246.097c0,1.464-1.187,2.652-2.651,2.652c-1.464,0-2.651-1.187-2.651-2.652
							c0-1.464,1.187-2.651,2.651-2.651C362.917,243.445,364.104,244.632,364.104,246.097z"/>
					</g>
					<rect x="378.675" y="248.879" style="fill:#263238;" width="27.876" height="2.769"/>
					<rect x="378.675" y="256.392" style="fill:#263238;" width="12.163" height="2.769"/>
					<rect x="378.675" y="241.367" style="fill:#263238;" width="27.876" height="2.769"/>
				</g>
				<g>
					<g>
						<g>
							<path style="fill:#E1BFB9;" d="M412.827,249.802c0,0-6.89,1.744-7.528,3.114c-0.638,1.37,1.517,1.266,1.517,1.266
								s-2.364,0.261-2.389,1.28c-0.03,1.223,2.228,1.103,2.228,1.103s-1.922,0.292-1.883,1.2c0.04,0.941,2.598,0.987,2.598,0.987
								s-1.314,0.462-0.93,1.078c0.384,0.616,5.81,0.817,7.408-0.198c1.598-1.016,1.604-7.988,1.293-9.51
								c-0.312-1.522-0.451-2.342-2.362-4.653L412.827,249.802L412.827,249.802z"/>
						</g>
						<g>
							<path style="opacity:0.2;" d="M406.822,254.296c0.003,0,0.007,0,0.01-0.001l4.099-0.653c0.055-0.009,0.093-0.067,0.084-0.129
								c-0.009-0.063-0.062-0.107-0.115-0.098l-4.099,0.653c-0.055,0.009-0.093,0.067-0.085,0.129
								C406.724,254.256,406.77,254.298,406.822,254.296z"/>
						</g>
						<g>
							<path style="opacity:0.2;" d="M406.778,256.673c0.001,0,0.001,0,0.003,0l3.987-0.314c0.056-0.004,0.097-0.059,0.092-0.122
								c-0.005-0.063-0.045-0.101-0.109-0.106l-3.988,0.314c-0.056,0.004-0.097,0.059-0.092,0.122
								C406.676,256.628,406.723,256.675,406.778,256.673z"/>
						</g>
						<g>
							<path style="opacity:0.2;" d="M407.511,258.859l2.97-0.148c0.056-0.003,0.098-0.056,0.095-0.119
								c-0.003-0.063-0.051-0.112-0.106-0.109l-2.97,0.148c-0.056,0.003-0.098,0.056-0.095,0.119
								C407.408,258.812,407.456,258.861,407.511,258.859z"/>
						</g>
					</g>
				</g>
				<g>
					<g>
						<g>
							<path style="fill:#E1BFB9;" d="M339.177,246.452c0,0,6.89,1.744,7.528,3.114c0.638,1.371-1.517,1.266-1.517,1.266
								s2.364,0.261,2.389,1.28c0.03,1.223-2.228,1.103-2.228,1.103s1.922,0.292,1.883,1.2c-0.04,0.941-2.598,0.987-2.598,0.987
								s1.314,0.462,0.93,1.078c-0.384,0.616-5.81,0.817-7.408-0.198c-1.598-1.016-1.604-7.988-1.293-9.51
								c0.311-1.522,0.451-2.342,2.362-4.652L339.177,246.452L339.177,246.452z"/>
						</g>
						<g>
							<path style="opacity:0.2;" d="M345.183,250.945c-0.003,0-0.006,0-0.01-0.001l-4.099-0.653
								c-0.055-0.009-0.093-0.067-0.084-0.129c0.009-0.063,0.062-0.107,0.115-0.098l4.1,0.653c0.055,0.009,0.093,0.067,0.085,0.129
								C345.28,250.906,345.234,250.948,345.183,250.945z"/>
						</g>
						<g>
							<path style="opacity:0.2;" d="M345.227,253.322c-0.001,0-0.001,0-0.003,0l-3.987-0.314c-0.056-0.005-0.097-0.059-0.092-0.122
								c0.005-0.063,0.044-0.101,0.109-0.106l3.988,0.314c0.056,0.005,0.097,0.059,0.092,0.122
								C345.329,253.278,345.281,253.325,345.227,253.322z"/>
						</g>
						<g>
							<path style="opacity:0.2;" d="M344.493,255.508l-2.97-0.148c-0.056-0.003-0.098-0.056-0.095-0.119
								c0.003-0.063,0.051-0.112,0.106-0.109l2.97,0.148c0.056,0.003,0.098,0.056,0.095,0.119
								C344.597,255.462,344.549,255.511,344.493,255.508z"/>
						</g>
					</g>
				</g>
			</g>
		</g>
	</g>
</g>
<g id="Character_1">
	<g>
		<path style="fill:#CD877B;" d="M57.047,215.446c0,0-6.387,22.629-2.302,26.568c4.085,3.939,18.383,1.313,17.654,1.021
			c-0.729-0.292,3.647-27.506,3.939-26.519C76.63,217.503,57.047,215.446,57.047,215.446z"/>
		<g>
			<g>
				<path style="fill:#407BFF;" d="M162.771,253.616H97.808c-1.671,0-3.025-1.354-3.025-3.025v-62.934
					c0-1.671,1.354-3.025,3.025-3.025h64.964c1.671,0,3.025,1.354,3.025,3.025v62.934
					C165.796,252.262,164.442,253.616,162.771,253.616z"/>
				<path style="opacity:0.9;fill:#FFFFFF;" d="M162.771,253.616H97.808c-1.671,0-3.025-1.354-3.025-3.025v-62.934
					c0-1.671,1.354-3.025,3.025-3.025h64.964c1.671,0,3.025,1.354,3.025,3.025v62.934
					C165.796,252.262,164.442,253.616,162.771,253.616z"/>
				<rect x="109.746" y="191.979" style="fill:#407BFF;" width="41.938" height="2.666"/>
				<rect x="102.597" y="232.816" style="fill:#263238;" width="54.312" height="2.666"/>
				<rect x="102.597" y="239.908" style="fill:#263238;" width="26.843" height="2.666"/>
				<path style="fill:#407BFF;" d="M106.261,193.312c0,1.012-0.82,1.832-1.832,1.832c-1.012,0-1.832-0.82-1.832-1.832
					c0-1.012,0.82-1.832,1.832-1.832C105.441,191.48,106.261,192.301,106.261,193.312z"/>
			</g>
			<g>
				<rect x="133.641" y="202.16" style="fill:#407BFF;" width="23.269" height="23.269"/>
				<rect x="133.641" y="202.16" style="opacity:0.4;fill:#FFFFFF;" width="23.269" height="23.269"/>
				<rect x="134.974" y="203.493" style="fill:#407BFF;" width="20.602" height="20.602"/>
				<rect x="134.974" y="203.493" style="opacity:0.7;fill:#FFFFFF;" width="20.602" height="20.602"/>
				<polygon style="fill:#407BFF;" points="134.974,224.096 141.973,214.788 146.605,217.958 152.191,211.778 155.576,214.942 
					155.576,224.096 				"/>
				<path style="fill:#407BFF;" d="M147.829,208.448c0,1.41-1.143,2.553-2.553,2.553s-2.553-1.143-2.553-2.553
					c0-1.41,1.143-2.553,2.553-2.553S147.829,207.038,147.829,208.448z"/>
			</g>
			<g>
				<rect x="105.85" y="202.16" style="fill:#407BFF;" width="23.269" height="23.269"/>
				<rect x="105.85" y="202.16" style="opacity:0.4;fill:#FFFFFF;" width="23.269" height="23.269"/>
				<rect x="107.183" y="203.493" style="fill:#407BFF;" width="20.602" height="20.602"/>
				<rect x="107.183" y="203.493" style="opacity:0.7;fill:#FFFFFF;" width="20.602" height="20.602"/>
				<polygon style="fill:#407BFF;" points="107.183,224.096 114.182,214.788 118.814,217.958 124.4,211.778 127.785,214.942 
					127.785,224.096 				"/>
				<path style="fill:#407BFF;" d="M120.037,208.448c0,1.41-1.143,2.553-2.553,2.553c-1.41,0-2.553-1.143-2.553-2.553
					c0-1.41,1.143-2.553,2.553-2.553C118.894,205.895,120.037,207.038,120.037,208.448z"/>
			</g>
		</g>
		<g>
			<g>
				<g>
					<g>
						<g>
							<g>
								<g>
									<g>
										<g>
											<path style="fill:#CD877B;" d="M64.595,419.768l-0.02,19.631l9.115,0.708l3.204-18.442
												C72.725,418.655,68.623,417.936,64.595,419.768z"/>
										</g>
									</g>
								</g>
							</g>
							<g>
								<g>
									<g>
										<g>
											<g>
												<path style="fill:#263238;" d="M64.893,437.351c-0.897,2.591-0.956,13.191-0.956,13.191l19.321,0.023
													c1.148-3.833-0.629-6.45-2.882-6.798c-0.969-0.148-2.108-1.225-2.938-2.165c-0.006-0.122-1.187-6.01-1.917-6.292
													c0,0-0.503-0.612-0.932-0.001c-0.429,0.611-0.8,2.601-0.8,2.601C70.773,433.855,67.817,434.396,64.893,437.351z"/>
											</g>
										</g>
									</g>
								</g>
							</g>
							<g>
								<g>
									<g>
										<g>
											<path style="fill:#FFFFFF;" d="M64.658,440.428c2.183-0.871,4.526-0.54,6.429,0.908c0.333,0.254,0.649-0.339,0.319-0.59
												c-2.028-1.543-4.591-1.905-6.916-0.977C64.112,439.92,64.276,440.581,64.658,440.428L64.658,440.428z"/>
										</g>
									</g>
								</g>
							</g>
							<g>
								<g>
									<g>
										<path style="fill:#FFFFFF;" d="M83.2,449.014C83.2,449.014,83.2,449.014,83.2,449.014l-19.037-0.022
											c-0.174,0-0.316-0.153-0.315-0.342c0-0.189,0.142-0.342,0.316-0.342c0,0,0,0,0,0l19.037,0.022
											c0.174,0,0.316,0.153,0.315,0.342C83.516,448.861,83.374,449.014,83.2,449.014z"/>
									</g>
								</g>
							</g>
						</g>
						<g>
							<g>
								<g>
									<g>
										<path style="fill:#263238;" d="M61.214,429.443l19.424,1.034c4.358-14.123,8.665-64.764,9.11-79.967
											c0.532-18.166,7.036-63.758,1.285-73.245c-5.751-9.487-31.765-1.931-31.765-1.931s3.242,55.514,1.946,73.218
											C60.091,363.896,58.353,409.001,61.214,429.443z"/>
									</g>
								</g>
							</g>
						</g>
						<g>
							<polygon style="fill:#407BFF;" points="82.735,425.36 81.472,431.849 60.423,431.166 59.651,424.934 							"/>
						</g>
					</g>
					<g>
						<g>
							<g>
								<g>
									<g>
										<g>
											<path style="fill:#CD877B;" d="M103.919,417.208l-0.022,22.156l8.771,0.724l4.315-20.739
												C113.461,416.515,109.371,415.126,103.919,417.208z"/>
										</g>
									</g>
								</g>
							</g>
							<g>
								<g>
									<g>
										<g>
											<g>
												<path style="fill:#263238;" d="M103.899,437.397c-0.897,2.591-0.956,13.191-0.956,13.191l22.197,0.026
													c1.148-3.834-1.251-6.106-3.504-6.453c-0.968-0.148-4.361-1.573-5.192-2.513c-0.006-0.122-1.187-6.01-1.917-6.292
													c0,0-0.503-0.612-0.932-0.001c-0.429,0.611-0.8,2.601-0.8,2.601C109.779,433.901,106.823,434.442,103.899,437.397z"/>
											</g>
										</g>
									</g>
								</g>
							</g>
							<g>
								<g>
									<g>
										<g>
											<path style="fill:#FFFFFF;" d="M103.664,440.474c2.183-0.871,4.526-0.54,6.429,0.908
												c0.333,0.254,0.649-0.339,0.319-0.591c-2.028-1.543-4.591-1.905-6.916-0.977
												C103.118,439.966,103.282,440.627,103.664,440.474L103.664,440.474z"/>
										</g>
									</g>
								</g>
							</g>
							<g>
								<g>
									<g>
										<path style="fill:#FFFFFF;" d="M125.142,449.064C125.142,449.064,125.142,449.064,125.142,449.064l-21.973-0.026
											c-0.174,0-0.315-0.153-0.315-0.342c0-0.189,0.141-0.341,0.316-0.341c0,0,0,0,0,0l21.973,0.026
											c0.174,0,0.316,0.153,0.315,0.342C125.458,448.911,125.316,449.064,125.142,449.064z"/>
									</g>
								</g>
							</g>
						</g>
						<g>
							<g>
								<g>
									<g>
										<path style="fill:#263238;" d="M100.008,429.443l19.257,1.034c2.344-15.635,11.763-72.572,10.989-83.479
											c-0.945-13.322-12.098-70.988-16.245-75.435c-4.147-4.446-34.512,7.079-34.512,7.079s12.479,49.589,22.319,71.036
											C103.859,354.133,98.427,410.427,100.008,429.443z"/>
									</g>
								</g>
							</g>
						</g>
						<g>
							<polygon style="fill:#407BFF;" points="121.466,425.846 120.484,431.849 99.083,430.477 98.652,424.192 							"/>
						</g>
					</g>
					<g style="opacity:0.3;">
						<g>
							<path style="fill:#FFFFFF;" d="M86.87,311.826c-0.368-0.81-0.738-1.619-1.081-2.444c-1.831-4.407-3.215-8.993-4.314-13.673
								c-3.167-0.338-6.296-1.032-9.346-2.077c-0.387-0.132-0.221-0.792,0.168-0.66c4.822,1.651,9.834,2.418,14.89,2.276
								c0.407-0.011,0.405,0.672,0,0.684c-1.687,0.047-3.369-0.015-5.043-0.168c1.102,4.649,2.481,9.209,4.32,13.582
								c1.841,4.378,4.073,8.543,6.379,12.65c0.212,0.378-0.334,0.721-0.545,0.345c-1.699-3.025-3.352-6.086-4.843-9.236
								c-0.138,3.758-0.555,15.37-1.025,30.754c-0.81,26.549-7.034,69.714-8.773,81.357h-0.64
								c1.713-11.458,7.969-54.781,8.782-81.379C86.355,325.651,86.837,312.727,86.87,311.826z"/>
						</g>
						<g>
							<path style="fill:#FFFFFF;" d="M63.855,348.077c5.6-0.328,11.208-0.165,16.784,0.489c0.4,0.047,0.403,0.731,0,0.684
								c-5.576-0.654-11.184-0.817-16.784-0.489C63.448,348.784,63.45,348.1,63.855,348.077z"/>
						</g>
						<g>
							<path style="fill:#FFFFFF;" d="M126.795,348.136c-0.435-8.334-10.02-43.712-10.116-44.068
								c-0.049-0.181,0.047-0.371,0.214-0.424c0.167-0.053,0.343,0.05,0.392,0.232c0.396,1.458,9.702,35.81,10.141,44.222
								c0.377,7.236-9.616,74.131-10.042,76.975c-0.025,0.168-0.159,0.287-0.311,0.287c-0.017,0-0.034-0.001-0.051-0.004
								c-0.172-0.03-0.289-0.206-0.261-0.393C116.865,424.268,127.169,355.297,126.795,348.136z"/>
						</g>
						<g>
							<path style="fill:#FFFFFF;" d="M121.349,300.405c-7.22-2.952-9.554-11.53-11.274-18.866c-0.1-0.427,0.509-0.608,0.609-0.182
								c1.655,7.06,3.852,15.535,10.832,18.389C121.894,299.9,121.729,300.561,121.349,300.405z"/>
						</g>
						<g>
							<path style="fill:#FFFFFF;" d="M105.186,348.734c4.693-0.32,9.385-0.64,14.078-0.96c0.406-0.028,0.404,0.656,0,0.684
								c-4.693,0.32-9.386,0.64-14.078,0.959C104.779,349.446,104.782,348.762,105.186,348.734z"/>
						</g>
					</g>
				</g>
			</g>
		</g>
		<g>
			<g>
				<path style="fill:#263238;" d="M102.465,154.97c0,0.815,0.358,1.43,0.873,1.516c0.515,0.086,0.987-0.601,1.03-1.43
					s-0.343-1.43-0.858-1.516C102.994,153.454,102.565,154.184,102.465,154.97z"/>
				<path style="fill:#A24E3F;" d="M102.794,154.856c0.286,2.628,0.936,5.204,1.931,7.653c-1.29,0.474-2.722,0.359-3.92-0.315
					L102.794,154.856z"/>
				<path style="fill:#263238;" d="M100.991,152.353c-0.105,0.01-0.211-0.015-0.3-0.072c-0.186-0.183-0.188-0.482-0.005-0.668
					c0.002-0.002,0.003-0.003,0.005-0.005c0.955-1.189,2.427-1.839,3.948-1.745c0.252,0.023,0.438,0.245,0.415,0.497
					c0,0.001,0,0.003,0,0.004l0,0c-0.043,0.254-0.272,0.433-0.529,0.415l0,0c-1.206-0.055-2.363,0.478-3.104,1.43
					C101.313,152.33,101.15,152.384,100.991,152.353z"/>
			</g>
			<g>
				<path style="fill:#CD877B;" d="M102.809,165.798c-0.107,0.435-0.239,0.864-0.395,1.285c-0.875,2.401-2.467,4.486-4.568,5.982
					c-0.528,0.381-1.087,0.72-1.669,1.015c-4.577,2.407-10.223,1.524-13.815-2.159c-4.623-4.589-4.503-9.891-5.03-18.863
					c-0.139-1.928,0.18-3.862,0.933-5.647c2.649-6.267,9.963-9.236,16.336-6.632c0.002,0.001,0.003,0.001,0.005,0.002
					C103.523,144.366,104.753,157.711,102.809,165.798z"/>
				<path style="opacity:0.2;enable-background:new    ;" d="M97.812,173.065c-0.528,0.381-1.086,0.72-1.669,1.015
					c-3.097,1.624-6.775,1.783-10.005,0.432c0.413-1.079,0.963-2.102,1.636-3.045C91.207,171.044,94.691,171.599,97.812,173.065z"/>
				<path style="fill:#CD877B;" d="M79.439,184.705c4.503,4.017,15.517,2.537,15.517,2.537s6.875-1.857,5.425-3.963
					c-4.041-0.659-6.007-2.516-6.82-4.902c-0.439-1.474-0.577-3.019-0.406-4.546c0.065-0.851,0.178-1.699,0.34-2.537l-13.618-9.912
					C81.658,167.926,83.843,179.965,79.439,184.705z"/>
				<path style="fill:#263238;" d="M97.812,157.636l1.966,0.723l-0.977-3.952c0,0,2.877-4.319,0-8.066c0,0,7.951-2.375,3.459-6.479
					c-1.669-1.533-3.745,0-9.236-2.343c-2.976-1.285-12.289-1.382-12.75,2.343c0,0-6.71,0-7.435,11.229
					c-0.429,6.661,2.174,13.164,7.105,17.751c0,0,8.105,1.879,12.08-1.317C96,164.33,97.812,157.636,97.812,157.636z"/>
				<path style="fill:#CD877B;" d="M92.629,158.273c0.347,1.71,1.461,3.174,3.031,3.984c1.856,0.777,3.086-1.792,2.811-4.492
					c-0.253-2.397-1.516-5.766-3.503-5.312C92.98,152.906,91.981,155.854,92.629,158.273z"/>
			</g>
		</g>
		<g>
			<path style="fill:#407BFF;" d="M65.592,182.546c0,0-3.164,0.962-4.738,1.539c-3.281,1.202-5.447,4.855-6.634,8.441
				c-2.902,8.764-7.59,29.51-7.59,29.51l17.014,3.576l9.076-19.547L65.592,182.546z"/>
			<path style="opacity:0.5;fill:#FFFFFF;" d="M65.592,182.546c0,0-4.553,0.847-6.95,2.827c-1.824,1.507-3.277,3.693-4.422,7.152
				c-2.902,8.764-7.59,29.51-7.59,29.51l17.014,3.576l9.076-19.547L65.592,182.546z"/>
			<g>
				<path style="fill:#407BFF;" d="M106.799,183.552c-5.019-0.54-20.455-4.028-41.207-1.006l-4.856,76.729
					c0,0-0.623,11.739-2.462,21.812c21.089,9.055,46.037,6.466,60.144-1.147c-0.163,0.32-0.625-8.052-1.349-20.317
					c-1.275-21.612-3.362-55.31-6.054-74.819C110.942,184.323,107.299,183.606,106.799,183.552z"/>
			</g>
			<g style="opacity:0.5;">
				<path style="fill:#FFFFFF;" d="M106.799,183.552c-5.019-0.54-20.455-4.028-41.207-1.006l-4.856,76.729
					c0,0-0.623,11.739-2.462,21.812c21.089,9.055,46.037,6.466,60.144-1.147c-0.163,0.32-0.625-8.052-1.349-20.317
					c-1.275-21.612-3.362-55.31-6.054-74.819C110.942,184.323,107.299,183.606,106.799,183.552z"/>
			</g>
			<g>
				<path style="fill:#407BFF;" d="M79.211,181.748c0.6-1.783,1.434-3.038,2.504-3.765l11.556,0.891l5.418,3.572L79.211,181.748z"/>
				<path style="opacity:0.5;fill:#FFFFFF;" d="M79.211,181.748c0.599-1.783,1.434-3.038,2.504-3.765l11.556,0.891l5.418,3.572
					L79.211,181.748z"/>
			</g>
			<path style="opacity:0.2;enable-background:new    ;" d="M106.261,207.434c1.851,8.642,4.511,25.584,9.533,31.488l-1.193-17.146
				L106.261,207.434z"/>
			<polygon style="opacity:0.2;enable-background:new    ;" points="62.562,225.374 63.009,203.215 58.358,224.32 			"/>
		</g>
		<path style="fill:#CD877B;" d="M115.12,214.269c-0.649,0.249,11.866,28.405,16.961,28.657
			c5.095,0.251,29.017-10.634,29.017-10.634l-5.367-6.406l-18.08,1.037l-9.222-19.63L115.12,214.269z"/>
		<g>
			<path style="fill:#407BFF;" d="M108.827,184.518c-6.49,4.287-9.707,13.992,7.693,43.957l18.79-11.475
				c-3.801-7.013-7.828-12.111-12.303-22.268C113.985,181.746,108.827,184.518,108.827,184.518z"/>
			<path style="opacity:0.5;fill:#FFFFFF;" d="M108.827,184.518c-6.49,4.287-9.707,13.992,7.693,43.957l18.79-11.475
				c-3.801-7.013-7.828-12.111-12.303-22.268C113.985,181.746,108.827,184.518,108.827,184.518z"/>
		</g>
		<path style="fill:#CD877B;" d="M169.524,225.696c0-1.643-0.506-3.43-1.39-3.484c-0.885-0.055-5.61-0.005-5.61-0.005l0,0
			c0-1.326-1.41-2.192-2.582-1.57c-1.4,0.743-2.923,1.754-3.309,2.785c-0.758,2.022-1.137,2.528-1.137,2.528l3.237,7.429
			c0,0,5.989,3.946,7.38,2.555s1.264-2.876,1.264-2.876s1.39-1.927,1.264-3.191C168.513,228.603,169.524,227.339,169.524,225.696z"
			/>
	</g>
</g>
</svg>
