<svg width="20" height="20" viewBox="0 0 20 20" fill="none" xmlns="http://www.w3.org/2000/svg">
<g opacity="0.2">
<rect opacity="0.01" y="20" width="20" height="20" transform="rotate(-90 0 20)" fill="black"/>
<path d="M4.16671 10.8333H14.05L11.025 14.4667C10.7305 14.821 10.779 15.3471 11.1334 15.6417C11.4878 15.9362 12.0138 15.8877 12.3084 15.5333L16.475 10.5333C16.5031 10.4936 16.5281 10.4518 16.55 10.4083C16.55 10.3667 16.5917 10.3417 16.6084 10.3C16.6461 10.2044 16.6659 10.1027 16.6667 9.99999C16.6659 9.89725 16.6461 9.79554 16.6084 9.69999C16.6084 9.65832 16.5667 9.63332 16.55 9.59166C16.5281 9.54821 16.5031 9.50643 16.475 9.46666L12.3084 4.46666C12.1497 4.27621 11.9146 4.16626 11.6667 4.16666C11.472 4.16628 11.2833 4.23409 11.1334 4.35832C10.963 4.49961 10.8558 4.70291 10.8354 4.92335C10.8151 5.14379 10.8833 5.36326 11.025 5.53332L14.05 9.16666H4.16671C3.70647 9.16666 3.33337 9.53975 3.33337 9.99999C3.33337 10.4602 3.70647 10.8333 4.16671 10.8333Z" fill="black"/>
</g>
</svg>
